<svg xmlns="http://www.w3.org/2000/svg" width="250" height="250" viewBox="0 0 250 250" fill="none">
  <path d="m234.6 81.4c-10.54-3.58-30.17-9.53-44.31-14.79-8.72-3.34-9.33-8.78-11.85-17.99-1.89-7.07-6.94-11.2-17.38-16.95-14.89-8.43-33.93-13.16-58.27-13.16-25.33 0-45.62 11.67-55.48 36.09-0.27 0.67-0.38 0.85-0.35 0.78-9.53 7.1-15.21 19.06-35.43 51.84-4.89 7.97-4.89 15.07 1.51 26.45 3.25 5.68 7 11.53 10.48 16.94-4.59 12.55-8.39 21.32-15.35 31.5-1.93 2.91-0.61 5.01 0.76 5.81 2 1.16 4.23 0.32 5.5-1.54 7.08-10.19 10.49-17.2 14.83-26.97 10.07 13 19.51 23.35 30.17 32.77 9.93 8.17 19.73 13.11 30.43 13.11 12.93 0 22.01-9.46 25.77-30.68 3.01-18.45-0.31-36.9-6.65-51.52-8.36-20.77-16.02-33.08-15.72-48.45 0.12-5.76 1.57-10.53 5.82-15.23 2.28-2.57 0.78-6.66-2.57-6.96-4.57-0.4-10.86 10.46-10.99 22.66-0.22 14.76 6.64 28.54 16.24 51.2 8.73 20.95 8.98 40.75 4.2 57.51-3.05 10.46-8.27 13.95-15.83 13.72-10.11-0.3-20.17-7.55-28.16-15.15-17.17-16.26-28.1-28.23-38.74-48.98-6.09-10.93-8.63-15.24-4.81-22.74 15.11-24.76 21.94-39.84 32.97-48.89 7.42-5.8 12.4-7.8 16.59-8.55 5.73-0.54 4.5-8.06-0.14-7.41-2.8 0.35-4.84 0.97-8.08 2.4 10.9-14.97 27.11-22.33 47.25-22.33 21.53 0 38.82 4.12 52.96 12.52 9.79 6.1 10.24 7.76 12.24 16.47 2.12 9.4 7.52 15.2 17.39 18.42 8.16 2.82 17.17 5.69 24.59 8.91-2.33 2.37-3.26 5.91-2.63 10.49 1.17 7.5 9.25 15.13 18 17.31-1.77 6.8-4.45 14.44-10.79 20.33-9.08 8.58-21.6 13.37-35.26 14.48-10.85 0.34-21.38-3.56-39.22-3.16-3.87 0.1-7.76 0.53-10.65 0.81-5.17 0.26-4.86 7.76 0.22 7.76 5.17-0.57 9.98-1.16 15.35-0.77-16.37 14.95-21.78 38.77-10.47 77.01 0.88 3.95 3.33 4.07 4.83 3.64 2.6-0.8 2.98-3.23 2.29-5.41-9.65-31.88-6.3-54.69 15.43-74.47 7.98 1.36 14.94 2.41 21.44 2.18 17.54-1.1 33.44-8.73 43.43-20.4 6.5-7.63 8.97-18.24 13.35-30.35 3.45-9.55 2.26-17.4-4.91-20.26zm-0.48 16.8c-0.58 2.27-0.73 3-1.15 4.46-6.86-2.33-12.5-7.85-13.01-11.74-0.39-3.13 0.85-4.7 3.71-4.7 2.33 0 6.39 1.43 9.3 2.18 3.36 0.98 2.82 4.87 1.15 9.8z" fill="#262626"></path>
  <path d="m137.4 75.86c2.27 1.76 4.69 0.4 5.86-1.15 2.86-3.08 4.84-4.44 7.63-4.44 2.12 0 3.53 1.15 5.2 2.27 3.76 2.17 6.48-2.49 4.81-4.95-2.86-3.65-6.9-4.76-10.66-4.76-7.17 0-11.35 5.34-13.55 7.78-1.67 2.28-0.9 4.21 0.71 5.25z" fill="#262626"></path>
</svg>