<svg xmlns="http://www.w3.org/2000/svg" width="250" height="250" viewBox="0 0 250 250" fill="none">
<path d="M 117.78,59.64 H 64.39 V 177.73 H 88.44 V 132.19 H 110.81 C 118.89,122.06 126.01,111.27 137.09,106.56 C 142.06,104.33 147.71,102.66 152.99,101.21 C 153.96,91.15 152.29,79.26 144.93,71.34 C 136.91,62.64 129.82,59.64 117.78,59.64 Z M 110.17,113.01 H 88.54 V 79.51 H 111.66 C 123.08,79.51 129.03,87.31 128.89,95.83 C 128.76,105.74 120.96,112.74 110.17,113.01 Z" fill="url(#paint0_linear_1_182)"/>
<path d="M 17.79,119.77 C 17.79,71.09 58.07,27.88 108.63,27.88 C 154.71,27.88 193.04,62.89 198.07,103.79 C 204.09,106.84 208.19,110.81 210.31,113.99 C 208.97,67.43 169.71,16.28 108.62,16.28 C 53.22,16.28 7.16,62.49 7.16,119.33 C 7.16,164.49 37.68,203.71 78.88,216.52 L 82.94,217.69 L 89.82,207.13 C 47.81,198.76 17.79,162.71 17.79,119.77 Z" fill="url(#paint1_linear_1_182)"/>
<path d="M 237.79,138.52 C 229.89,136.41 220.71,134.66 212.79,131.24 C 210.72,118.11 197.41,107.01 181.82,105.81 C 167.78,104.22 155.78,106.21 142.21,113.01 C 132.72,117.05 124.69,127.16 115.78,138.03 C 110.71,143.71 109.51,152.75 114.92,158.96 C 117.04,161.93 118.91,163.79 120.19,164.81 C 115.12,185.91 102.88,202.97 88.91,219.78 C 105.71,227.76 125.29,232.13 145.92,232.13 C 155.09,232.13 163.99,231.06 171.66,229.43 C 155.14,221.82 126.91,206.94 128.21,170.09 C 135.29,174.93 141.96,178.98 147.78,178.84 C 156.71,178.71 159.72,169.21 160.93,162.74 C 161.75,152.13 155.91,137.01 154.95,130.14 C 154.41,124.46 156.93,117.21 161.74,115.92 C 172.12,113.14 192.61,112.74 202.99,127.86 C 203.94,128.67 203.94,129.19 203.94,129.73 C 200.28,129.2 198.16,134.46 201.67,136.81 C 203.2,138.09 212.82,140.87 221.61,142.97 C 216.78,146.88 221.74,156.81 232.26,158.41 C 230.13,167.91 220.64,176.56 208.95,177.63 C 197.92,179.11 187.78,177.73 178.69,170.43 C 173.99,167.51 168.69,173.81 172.34,177.63 C 176.32,181.31 181.32,184.11 185.99,185.57 C 174.97,190.33 172.19,200.11 173.42,215.62 C 176.43,205.35 179.44,200.11 186.26,195.96 C 185.31,203.11 187.04,213.01 190.38,222.51 L 197.74,217.26 C 192.91,206.16 193.72,193.28 200.01,188.71 C 217.26,187.01 228.95,182.03 238.04,167.21 C 241.05,162.23 241.73,154.97 242.34,151.39 C 243.15,146.01 242.88,140.06 237.79,138.52 Z M 147.78,120.22 C 144.77,129.19 150.62,143.48 152.15,155.64 C 152.96,161.86 151.16,169.62 147.78,169.62 C 142.68,169.62 120.12,157.07 119.65,148.78 C 119.51,144.96 123.75,141.01 127.16,136.81 C 134.78,128.28 141.07,122.06 147.78,120.22 Z" fill="#3D79BC"/>
<path d="M 182.53,130.79 C 177.71,130.79 175.65,134.73 175.65,137.43 C 175.65,141.76 178.66,143.61 182.25,143.61 C 186.62,143.61 187.82,139.66 187.82,137.31 C 187.82,133.86 185.24,130.79 182.53,130.79 Z" fill="#3D79BC"/>
<defs>
<linearGradient id="paint0_linear_1_182" x1="64.3867" y1="118.685" x2="153.445" y2="118.685" gradientUnits="userSpaceOnUse">
<stop stop-color="#1D4363"/>
<stop offset="1" stop-color="#1A4269"/>
</linearGradient>
<linearGradient id="paint1_linear_1_182" x1="7.15625" y1="117.001" x2="210.308" y2="117.001" gradientUnits="userSpaceOnUse">
<stop stop-color="#1D4B70"/>
<stop offset="1" stop-color="#1E507A"/>
</linearGradient>
</defs>
</svg>